<svg width="41" height="30" viewBox="0 0 41 30" fill="none" xmlns="http://www.w3.org/2000/svg">
<path fill-rule="evenodd" clip-rule="evenodd" d="M0 17.1267C1.31522 19.4044 2.63165 21.6817 3.94932 23.9584L34.771 16.5817L40.673 15L0 17.1267Z" fill="#FE8700"/>
<path fill-rule="evenodd" clip-rule="evenodd" d="M40.1819 15.8508L11.9689 25.2515L13.8351 28.4838C14.0954 28.9497 14.4769 29.3365 14.939 29.6033C15.4012 29.8701 15.9268 30.0071 16.4604 29.9997H30.2584C30.792 30.0071 31.3177 29.8701 31.7798 29.6032C32.2419 29.3364 32.6233 28.9496 32.8837 28.4838L36.3399 22.4977L36.3435 22.4997L39.4911 17.0483L32.1538 21.1239L29.5299 25.6685H22.5074L32.8381 19.9303L40.1819 15.8508Z" fill="#032339"/>
<path fill-rule="evenodd" clip-rule="evenodd" d="M35.2892 14.3163L40.3449 14.4319L40.343 14.4283L35.0783 13.9509L12.7536 12.0207L17.1885 4.33118H29.5292L32.6041 9.65707V9.66553L34.6494 13.208L35.135 13.2419L39.908 13.6746L36.3429 7.49996L36.3392 7.50204L32.8832 1.51577C32.6227 1.05004 32.2413 0.66334 31.7791 0.396574C31.317 0.129807 30.7913 -0.00711207 30.2578 0.000285765H16.4597C15.9261 -0.00712751 15.4004 0.129819 14.9383 0.396634C14.4761 0.663449 14.0947 1.05022 13.8343 1.51602L10.3781 7.50229C9.06447 9.7738 8.06298 11.5038 6.75116 13.7762L35.2892 14.3163Z" fill="#032339"/>
</svg>
