<svg width="156" height="115" viewBox="0 0 156 115" fill="none" xmlns="http://www.w3.org/2000/svg">
<path fill-rule="evenodd" clip-rule="evenodd" d="M0 65.6524C5.04166 74.3837 10.088 83.113 15.1391 91.8405L133.289 63.5632L155.913 57.5L0 65.6524Z" fill="#FE8700"/>
<path fill-rule="evenodd" clip-rule="evenodd" d="M154.031 60.7613L45.8811 96.7976L53.0347 109.188C54.0327 110.974 55.4948 112.456 57.2664 113.479C59.038 114.502 61.0531 115.027 63.0986 114.999H115.991C118.036 115.027 120.051 114.502 121.823 113.479C123.594 112.456 125.056 110.974 126.054 109.188L139.303 86.2411L139.317 86.2491L151.383 65.3519L123.256 80.9751L113.198 98.3961H86.2786L125.879 76.3995L154.031 60.7613Z" fill="#032339"/>
<path fill-rule="evenodd" clip-rule="evenodd" d="M135.275 54.8792L154.656 55.3224L154.648 55.3083L134.467 53.4786L48.889 46.0792L65.8894 16.6029H113.196L124.983 37.0188V37.0512L132.823 50.6308L134.685 50.7605L152.981 52.4192L139.315 28.7498L139.3 28.7578L126.052 5.81043C125.054 4.02514 123.592 2.5428 121.82 1.5202C120.049 0.497595 118.034 -0.0272629 115.988 0.00109543H63.0956C61.0502 -0.0273221 59.0352 0.497639 57.2636 1.52043C55.492 2.54322 54.0298 4.02584 53.0317 5.81141L39.783 28.7588C34.7473 37.4662 30.9083 44.0981 25.8796 52.8088L135.275 54.8792Z" fill="#032339"/>
</svg>
